<mxfile host="app.diagrams.net" modified="2023-04-03T19:56:58.948Z" agent="Mozilla/5.0 (Windows NT 10.0; Win64; x64) AppleWebKit/537.36 (KHTML, like Gecko) Chrome/111.0.0.0 Safari/537.36 Edg/111.0.1661.62" etag="BGgJ-NZFuLqiqEt4i4Z7" version="21.1.4" type="github">
  <diagram name="PÃ¡gina-1" id="TsNBDz-tJirOaTE4AlUL">
    <mxGraphModel dx="5127" dy="3079" grid="1" gridSize="10" guides="1" tooltips="1" connect="1" arrows="1" fold="1" page="1" pageScale="1" pageWidth="827" pageHeight="1169" math="0" shadow="0">
      <root>
        <mxCell id="0" />
        <mxCell id="1" parent="0" />
        <mxCell id="K529BgqyPdFPI6PLgaCU-2" value="Saldo" style="html=1;strokeWidth=2;shape=manualInput;whiteSpace=wrap;rounded=1;size=26;arcSize=11;sketch=1;hachureGap=4;jiggle=2;curveFitting=1;fontFamily=Architects Daughter;fontSource=https%3A%2F%2Ffonts.googleapis.com%2Fcss%3Ffamily%3DArchitects%2BDaughter;fontSize=20;" parent="1" vertex="1">
          <mxGeometry x="80" y="140" width="100" height="60" as="geometry" />
        </mxCell>
        <mxCell id="K529BgqyPdFPI6PLgaCU-3" value="Inicio" style="strokeWidth=2;html=1;shape=mxgraph.flowchart.start_1;whiteSpace=wrap;sketch=1;hachureGap=4;jiggle=2;curveFitting=1;fontFamily=Architects Daughter;fontSource=https%3A%2F%2Ffonts.googleapis.com%2Fcss%3Ffamily%3DArchitects%2BDaughter;fontSize=20;" parent="1" vertex="1">
          <mxGeometry x="80" width="100" height="60" as="geometry" />
        </mxCell>
        <mxCell id="K529BgqyPdFPI6PLgaCU-6" value="Saldo inicial:&quot;+ saldo" style="strokeWidth=2;html=1;shape=mxgraph.flowchart.display;whiteSpace=wrap;sketch=1;hachureGap=4;jiggle=2;curveFitting=1;fontFamily=Architects Daughter;fontSource=https%3A%2F%2Ffonts.googleapis.com%2Fcss%3Ffamily%3DArchitects%2BDaughter;fontSize=20;" parent="1" vertex="1">
          <mxGeometry x="300" y="130" width="100" height="80" as="geometry" />
        </mxCell>
        <mxCell id="K529BgqyPdFPI6PLgaCU-8" value="Encerrar=&quot;n&quot;" style="rounded=1;whiteSpace=wrap;html=1;sketch=1;hachureGap=4;jiggle=2;curveFitting=1;fontFamily=Architects Daughter;fontSource=https%3A%2F%2Ffonts.googleapis.com%2Fcss%3Ffamily%3DArchitects%2BDaughter;fontSize=20;" parent="1" vertex="1">
          <mxGeometry x="80" y="270" width="120" height="60" as="geometry" />
        </mxCell>
        <mxCell id="K529BgqyPdFPI6PLgaCU-17" value="" style="endArrow=open;endFill=1;endSize=12;html=1;rounded=0;sketch=1;hachureGap=4;jiggle=2;curveFitting=1;fontFamily=Architects Daughter;fontSource=https%3A%2F%2Ffonts.googleapis.com%2Fcss%3Ffamily%3DArchitects%2BDaughter;fontSize=16;entryX=1;entryY=0.75;entryDx=0;entryDy=0;exitX=0.612;exitY=1.049;exitDx=0;exitDy=0;exitPerimeter=0;" parent="1" source="K529BgqyPdFPI6PLgaCU-6" target="K529BgqyPdFPI6PLgaCU-8" edge="1">
          <mxGeometry width="160" relative="1" as="geometry">
            <mxPoint x="400" y="240" as="sourcePoint" />
            <mxPoint x="240" y="280" as="targetPoint" />
            <Array as="points">
              <mxPoint x="360" y="315" />
            </Array>
          </mxGeometry>
        </mxCell>
        <mxCell id="K529BgqyPdFPI6PLgaCU-24" value="" style="endArrow=open;endFill=1;endSize=12;html=1;rounded=0;sketch=1;hachureGap=4;jiggle=2;curveFitting=1;fontFamily=Architects Daughter;fontSource=https%3A%2F%2Ffonts.googleapis.com%2Fcss%3Ffamily%3DArchitects%2BDaughter;fontSize=16;entryX=0.54;entryY=0.173;entryDx=0;entryDy=0;entryPerimeter=0;exitX=0.5;exitY=1;exitDx=0;exitDy=0;exitPerimeter=0;" parent="1" source="K529BgqyPdFPI6PLgaCU-3" target="K529BgqyPdFPI6PLgaCU-2" edge="1">
          <mxGeometry width="160" relative="1" as="geometry">
            <mxPoint x="180" y="90" as="sourcePoint" />
            <mxPoint x="145" y="190" as="targetPoint" />
          </mxGeometry>
        </mxCell>
        <mxCell id="K529BgqyPdFPI6PLgaCU-25" value="" style="endArrow=open;endFill=1;endSize=12;html=1;rounded=0;sketch=1;hachureGap=4;jiggle=2;curveFitting=1;fontFamily=Architects Daughter;fontSource=https%3A%2F%2Ffonts.googleapis.com%2Fcss%3Ffamily%3DArchitects%2BDaughter;fontSize=16;entryX=0;entryY=0.5;entryDx=0;entryDy=0;entryPerimeter=0;exitX=1;exitY=0.5;exitDx=0;exitDy=0;" parent="1" source="K529BgqyPdFPI6PLgaCU-2" target="K529BgqyPdFPI6PLgaCU-6" edge="1">
          <mxGeometry width="160" relative="1" as="geometry">
            <mxPoint x="220" y="140" as="sourcePoint" />
            <mxPoint x="250" y="170" as="targetPoint" />
          </mxGeometry>
        </mxCell>
        <mxCell id="K529BgqyPdFPI6PLgaCU-26" value="" style="endArrow=open;endFill=1;endSize=12;html=1;rounded=0;sketch=1;hachureGap=4;jiggle=2;curveFitting=1;fontFamily=Architects Daughter;fontSource=https%3A%2F%2Ffonts.googleapis.com%2Fcss%3Ffamily%3DArchitects%2BDaughter;fontSize=16;exitX=0.5;exitY=1;exitDx=0;exitDy=0;entryX=0.5;entryY=0;entryDx=0;entryDy=0;entryPerimeter=0;" parent="1" source="K529BgqyPdFPI6PLgaCU-8" target="K529BgqyPdFPI6PLgaCU-28" edge="1">
          <mxGeometry width="160" relative="1" as="geometry">
            <mxPoint x="139.5" y="320" as="sourcePoint" />
            <mxPoint x="170" y="350" as="targetPoint" />
          </mxGeometry>
        </mxCell>
        <mxCell id="K529BgqyPdFPI6PLgaCU-29" style="edgeStyle=orthogonalEdgeStyle;rounded=0;sketch=1;hachureGap=4;jiggle=2;curveFitting=1;orthogonalLoop=1;jettySize=auto;html=1;fontFamily=Architects Daughter;fontSource=https%3A%2F%2Ffonts.googleapis.com%2Fcss%3Ffamily%3DArchitects%2BDaughter;fontSize=16;" parent="1" edge="1">
          <mxGeometry relative="1" as="geometry">
            <mxPoint x="220" y="435" as="targetPoint" />
            <mxPoint x="220" y="435" as="sourcePoint" />
          </mxGeometry>
        </mxCell>
        <mxCell id="K529BgqyPdFPI6PLgaCU-28" value="Encerrar=&quot;n&quot;" style="strokeWidth=2;html=1;shape=mxgraph.flowchart.decision;whiteSpace=wrap;sketch=1;hachureGap=4;jiggle=2;curveFitting=1;fontFamily=Architects Daughter;fontSource=https%3A%2F%2Ffonts.googleapis.com%2Fcss%3Ffamily%3DArchitects%2BDaughter;fontSize=20;" parent="1" vertex="1">
          <mxGeometry x="75" y="360" width="130" height="130" as="geometry" />
        </mxCell>
        <mxCell id="K529BgqyPdFPI6PLgaCU-31" value="Tipo de entrada" style="shape=manualInput;whiteSpace=wrap;html=1;sketch=1;hachureGap=4;jiggle=2;curveFitting=1;fontFamily=Architects Daughter;fontSource=https%3A%2F%2Ffonts.googleapis.com%2Fcss%3Ffamily%3DArchitects%2BDaughter;fontSize=20;" parent="1" vertex="1">
          <mxGeometry x="80" y="540" width="130" height="100" as="geometry" />
        </mxCell>
        <mxCell id="K529BgqyPdFPI6PLgaCU-32" value="" style="endArrow=open;endFill=1;endSize=12;html=1;rounded=0;sketch=1;hachureGap=4;jiggle=2;curveFitting=1;fontFamily=Architects Daughter;fontSource=https%3A%2F%2Ffonts.googleapis.com%2Fcss%3Ffamily%3DArchitects%2BDaughter;fontSize=16;exitX=0.5;exitY=1;exitDx=0;exitDy=0;exitPerimeter=0;entryX=0.5;entryY=0;entryDx=0;entryDy=0;" parent="1" source="K529BgqyPdFPI6PLgaCU-28" target="K529BgqyPdFPI6PLgaCU-31" edge="1">
          <mxGeometry width="160" relative="1" as="geometry">
            <mxPoint x="144.5" y="505" as="sourcePoint" />
            <mxPoint x="200" y="510" as="targetPoint" />
            <Array as="points" />
          </mxGeometry>
        </mxCell>
        <mxCell id="K529BgqyPdFPI6PLgaCU-35" value="V" style="text;html=1;strokeColor=none;fillColor=none;align=center;verticalAlign=middle;whiteSpace=wrap;rounded=0;fontSize=20;fontFamily=Architects Daughter;" parent="1" vertex="1">
          <mxGeometry x="90" y="500" width="60" height="30" as="geometry" />
        </mxCell>
        <mxCell id="K529BgqyPdFPI6PLgaCU-36" value="Quantidade" style="shape=manualInput;whiteSpace=wrap;html=1;sketch=1;hachureGap=4;jiggle=2;curveFitting=1;fontFamily=Architects Daughter;fontSource=https%3A%2F%2Ffonts.googleapis.com%2Fcss%3Ffamily%3DArchitects%2BDaughter;fontSize=20;" parent="1" vertex="1">
          <mxGeometry x="80" y="670" width="140" height="80" as="geometry" />
        </mxCell>
        <mxCell id="K529BgqyPdFPI6PLgaCU-37" value="" style="endArrow=open;endFill=1;endSize=12;html=1;rounded=0;sketch=1;hachureGap=4;jiggle=2;curveFitting=1;fontFamily=Architects Daughter;fontSource=https%3A%2F%2Ffonts.googleapis.com%2Fcss%3Ffamily%3DArchitects%2BDaughter;fontSize=16;entryX=0.483;entryY=0.161;entryDx=0;entryDy=0;entryPerimeter=0;exitX=0.5;exitY=1;exitDx=0;exitDy=0;" parent="1" source="K529BgqyPdFPI6PLgaCU-31" target="K529BgqyPdFPI6PLgaCU-36" edge="1">
          <mxGeometry width="160" relative="1" as="geometry">
            <mxPoint x="144.5" y="630" as="sourcePoint" />
            <mxPoint x="144.5" y="700" as="targetPoint" />
          </mxGeometry>
        </mxCell>
        <mxCell id="K529BgqyPdFPI6PLgaCU-45" value="" style="edgeStyle=orthogonalEdgeStyle;rounded=0;sketch=1;hachureGap=4;jiggle=2;curveFitting=1;orthogonalLoop=1;jettySize=auto;html=1;fontFamily=Architects Daughter;fontSource=https%3A%2F%2Ffonts.googleapis.com%2Fcss%3Ffamily%3DArchitects%2BDaughter;fontSize=16;exitX=1;exitY=0.5;exitDx=0;exitDy=0;exitPerimeter=0;entryX=0;entryY=0.5;entryDx=0;entryDy=0;" parent="1" source="K529BgqyPdFPI6PLgaCU-39" target="K529BgqyPdFPI6PLgaCU-42" edge="1">
          <mxGeometry relative="1" as="geometry">
            <mxPoint x="240" y="890" as="sourcePoint" />
            <mxPoint x="260" y="880" as="targetPoint" />
          </mxGeometry>
        </mxCell>
        <mxCell id="K529BgqyPdFPI6PLgaCU-39" value="Tipo de entrada=1" style="strokeWidth=2;html=1;shape=mxgraph.flowchart.decision;whiteSpace=wrap;sketch=1;hachureGap=4;jiggle=2;curveFitting=1;fontFamily=Architects Daughter;fontSource=https%3A%2F%2Ffonts.googleapis.com%2Fcss%3Ffamily%3DArchitects%2BDaughter;fontSize=20;" parent="1" vertex="1">
          <mxGeometry x="77.5" y="790" width="152.5" height="130" as="geometry" />
        </mxCell>
        <mxCell id="K529BgqyPdFPI6PLgaCU-40" value="" style="endArrow=open;endFill=1;endSize=12;html=1;rounded=0;sketch=1;hachureGap=4;jiggle=2;curveFitting=1;fontFamily=Architects Daughter;fontSource=https%3A%2F%2Ffonts.googleapis.com%2Fcss%3Ffamily%3DArchitects%2BDaughter;fontSize=16;exitX=0.5;exitY=1;exitDx=0;exitDy=0;entryX=0.5;entryY=0;entryDx=0;entryDy=0;entryPerimeter=0;" parent="1" source="K529BgqyPdFPI6PLgaCU-36" target="K529BgqyPdFPI6PLgaCU-39" edge="1">
          <mxGeometry width="160" relative="1" as="geometry">
            <mxPoint x="180" y="780" as="sourcePoint" />
            <mxPoint x="170" y="780" as="targetPoint" />
          </mxGeometry>
        </mxCell>
        <mxCell id="K529BgqyPdFPI6PLgaCU-42" value="Saldo=saldo+&lt;br&gt;quantidade" style="rounded=1;whiteSpace=wrap;html=1;sketch=1;hachureGap=4;jiggle=2;curveFitting=1;fontFamily=Architects Daughter;fontSource=https%3A%2F%2Ffonts.googleapis.com%2Fcss%3Ffamily%3DArchitects%2BDaughter;fontSize=20;" parent="1" vertex="1">
          <mxGeometry x="290" y="815" width="160" height="80" as="geometry" />
        </mxCell>
        <mxCell id="K529BgqyPdFPI6PLgaCU-46" value="&quot;Entrada:&quot;+&lt;br&gt;quantidade" style="strokeWidth=2;html=1;shape=mxgraph.flowchart.display;whiteSpace=wrap;sketch=1;hachureGap=4;jiggle=2;curveFitting=1;fontFamily=Architects Daughter;fontSource=https%3A%2F%2Ffonts.googleapis.com%2Fcss%3Ffamily%3DArchitects%2BDaughter;fontSize=20;" parent="1" vertex="1">
          <mxGeometry x="510" y="820" width="130" height="80" as="geometry" />
        </mxCell>
        <mxCell id="K529BgqyPdFPI6PLgaCU-47" value="" style="endArrow=open;endFill=1;endSize=12;html=1;rounded=0;sketch=1;hachureGap=4;jiggle=2;curveFitting=1;fontFamily=Architects Daughter;fontSource=https%3A%2F%2Ffonts.googleapis.com%2Fcss%3Ffamily%3DArchitects%2BDaughter;fontSize=16;entryX=0;entryY=0.5;entryDx=0;entryDy=0;entryPerimeter=0;exitX=1;exitY=0.5;exitDx=0;exitDy=0;" parent="1" source="K529BgqyPdFPI6PLgaCU-42" target="K529BgqyPdFPI6PLgaCU-46" edge="1">
          <mxGeometry width="160" relative="1" as="geometry">
            <mxPoint x="334" y="880" as="sourcePoint" />
            <mxPoint x="494" y="880" as="targetPoint" />
          </mxGeometry>
        </mxCell>
        <mxCell id="K529BgqyPdFPI6PLgaCU-48" value="" style="endArrow=open;endFill=1;endSize=12;html=1;rounded=0;sketch=1;hachureGap=4;jiggle=2;curveFitting=1;fontFamily=Architects Daughter;fontSource=https%3A%2F%2Ffonts.googleapis.com%2Fcss%3Ffamily%3DArchitects%2BDaughter;fontSize=16;exitX=0.5;exitY=1;exitDx=0;exitDy=0;exitPerimeter=0;entryX=0.5;entryY=0;entryDx=0;entryDy=0;entryPerimeter=0;" parent="1" source="K529BgqyPdFPI6PLgaCU-39" target="K529BgqyPdFPI6PLgaCU-49" edge="1">
          <mxGeometry width="160" relative="1" as="geometry">
            <mxPoint x="153.25" y="950" as="sourcePoint" />
            <mxPoint x="153" y="960" as="targetPoint" />
          </mxGeometry>
        </mxCell>
        <mxCell id="K529BgqyPdFPI6PLgaCU-49" value="Tipo entrada=2" style="strokeWidth=2;html=1;shape=mxgraph.flowchart.decision;whiteSpace=wrap;sketch=1;hachureGap=4;jiggle=2;curveFitting=1;fontFamily=Architects Daughter;fontSource=https%3A%2F%2Ffonts.googleapis.com%2Fcss%3Ffamily%3DArchitects%2BDaughter;fontSize=20;" parent="1" vertex="1">
          <mxGeometry x="80" y="970" width="150" height="140" as="geometry" />
        </mxCell>
        <mxCell id="K529BgqyPdFPI6PLgaCU-50" value="F" style="text;html=1;strokeColor=none;fillColor=none;align=center;verticalAlign=middle;whiteSpace=wrap;rounded=0;fontSize=20;fontFamily=Architects Daughter;" parent="1" vertex="1">
          <mxGeometry x="100" y="940" width="60" height="30" as="geometry" />
        </mxCell>
        <mxCell id="K529BgqyPdFPI6PLgaCU-51" value="V" style="text;html=1;strokeColor=none;fillColor=none;align=center;verticalAlign=middle;whiteSpace=wrap;rounded=0;fontSize=20;fontFamily=Architects Daughter;" parent="1" vertex="1">
          <mxGeometry x="220" y="810" width="60" height="30" as="geometry" />
        </mxCell>
        <mxCell id="K529BgqyPdFPI6PLgaCU-54" value="" style="endArrow=open;endFill=1;endSize=12;html=1;rounded=0;sketch=1;hachureGap=4;jiggle=2;curveFitting=1;fontFamily=Architects Daughter;fontSource=https%3A%2F%2Ffonts.googleapis.com%2Fcss%3Ffamily%3DArchitects%2BDaughter;fontSize=16;exitX=0.5;exitY=1;exitDx=0;exitDy=0;exitPerimeter=0;" parent="1" source="K529BgqyPdFPI6PLgaCU-46" edge="1">
          <mxGeometry width="160" relative="1" as="geometry">
            <mxPoint x="690" y="940" as="sourcePoint" />
            <mxPoint x="180" y="940" as="targetPoint" />
            <Array as="points">
              <mxPoint x="580" y="960" />
            </Array>
          </mxGeometry>
        </mxCell>
        <mxCell id="K529BgqyPdFPI6PLgaCU-55" value="" style="endArrow=open;endFill=1;endSize=12;html=1;rounded=0;sketch=1;hachureGap=4;jiggle=2;curveFitting=1;fontFamily=Architects Daughter;fontSource=https%3A%2F%2Ffonts.googleapis.com%2Fcss%3Ffamily%3DArchitects%2BDaughter;fontSize=16;exitX=1;exitY=0.5;exitDx=0;exitDy=0;exitPerimeter=0;entryX=0;entryY=0.5;entryDx=0;entryDy=0;entryPerimeter=0;" parent="1" source="K529BgqyPdFPI6PLgaCU-49" target="K529BgqyPdFPI6PLgaCU-56" edge="1">
          <mxGeometry width="160" relative="1" as="geometry">
            <mxPoint x="380" y="1130" as="sourcePoint" />
            <mxPoint x="280" y="1060" as="targetPoint" />
          </mxGeometry>
        </mxCell>
        <mxCell id="K529BgqyPdFPI6PLgaCU-56" value="Saldo&amp;gt;=&lt;br&gt;quantidade" style="strokeWidth=2;html=1;shape=mxgraph.flowchart.decision;whiteSpace=wrap;sketch=1;hachureGap=4;jiggle=2;curveFitting=1;fontFamily=Architects Daughter;fontSource=https%3A%2F%2Ffonts.googleapis.com%2Fcss%3Ffamily%3DArchitects%2BDaughter;fontSize=20;" parent="1" vertex="1">
          <mxGeometry x="300" y="970" width="140" height="140" as="geometry" />
        </mxCell>
        <mxCell id="K529BgqyPdFPI6PLgaCU-57" value="Saldo=saldo-&lt;br&gt;quantidade" style="rounded=1;whiteSpace=wrap;html=1;sketch=1;hachureGap=4;jiggle=2;curveFitting=1;fontFamily=Architects Daughter;fontSource=https%3A%2F%2Ffonts.googleapis.com%2Fcss%3Ffamily%3DArchitects%2BDaughter;fontSize=20;" parent="1" vertex="1">
          <mxGeometry x="520" y="1010" width="150" height="80" as="geometry" />
        </mxCell>
        <mxCell id="K529BgqyPdFPI6PLgaCU-58" value="" style="endArrow=open;endFill=1;endSize=12;html=1;rounded=0;sketch=1;hachureGap=4;jiggle=2;curveFitting=1;fontFamily=Architects Daughter;fontSource=https%3A%2F%2Ffonts.googleapis.com%2Fcss%3Ffamily%3DArchitects%2BDaughter;fontSize=16;exitX=1;exitY=0.5;exitDx=0;exitDy=0;exitPerimeter=0;entryX=0;entryY=0.5;entryDx=0;entryDy=0;" parent="1" source="K529BgqyPdFPI6PLgaCU-56" target="K529BgqyPdFPI6PLgaCU-57" edge="1">
          <mxGeometry width="160" relative="1" as="geometry">
            <mxPoint x="380" y="1110" as="sourcePoint" />
            <mxPoint x="540" y="1110" as="targetPoint" />
          </mxGeometry>
        </mxCell>
        <mxCell id="K529BgqyPdFPI6PLgaCU-59" value="V" style="text;html=1;strokeColor=none;fillColor=none;align=center;verticalAlign=middle;whiteSpace=wrap;rounded=0;fontSize=20;fontFamily=Architects Daughter;" parent="1" vertex="1">
          <mxGeometry x="230" y="1000" width="60" height="30" as="geometry" />
        </mxCell>
        <mxCell id="K529BgqyPdFPI6PLgaCU-60" value="V" style="text;html=1;strokeColor=none;fillColor=none;align=center;verticalAlign=middle;whiteSpace=wrap;rounded=0;fontSize=20;fontFamily=Architects Daughter;" parent="1" vertex="1">
          <mxGeometry x="440" y="1000" width="60" height="30" as="geometry" />
        </mxCell>
        <mxCell id="K529BgqyPdFPI6PLgaCU-61" value="" style="endArrow=open;endFill=1;endSize=12;html=1;rounded=0;sketch=1;hachureGap=4;jiggle=2;curveFitting=1;fontFamily=Architects Daughter;fontSource=https%3A%2F%2Ffonts.googleapis.com%2Fcss%3Ffamily%3DArchitects%2BDaughter;fontSize=16;exitX=0.5;exitY=1;exitDx=0;exitDy=0;exitPerimeter=0;entryX=0.5;entryY=0;entryDx=0;entryDy=0;entryPerimeter=0;" parent="1" source="K529BgqyPdFPI6PLgaCU-56" target="K529BgqyPdFPI6PLgaCU-65" edge="1">
          <mxGeometry width="160" relative="1" as="geometry">
            <mxPoint x="340" y="1160" as="sourcePoint" />
            <mxPoint x="370" y="1130" as="targetPoint" />
          </mxGeometry>
        </mxCell>
        <mxCell id="K529BgqyPdFPI6PLgaCU-63" value="" style="endArrow=open;endFill=1;endSize=12;html=1;rounded=0;sketch=1;hachureGap=4;jiggle=2;curveFitting=1;fontFamily=Architects Daughter;fontSource=https%3A%2F%2Ffonts.googleapis.com%2Fcss%3Ffamily%3DArchitects%2BDaughter;fontSize=16;exitX=0.5;exitY=1;exitDx=0;exitDy=0;" parent="1" source="K529BgqyPdFPI6PLgaCU-57" target="K529BgqyPdFPI6PLgaCU-64" edge="1">
          <mxGeometry width="160" relative="1" as="geometry">
            <mxPoint x="560" y="1140" as="sourcePoint" />
            <mxPoint x="600" y="1110" as="targetPoint" />
          </mxGeometry>
        </mxCell>
        <mxCell id="K529BgqyPdFPI6PLgaCU-64" value="&quot;SaÃ­da:&quot;+&lt;br&gt;quantidade" style="strokeWidth=2;html=1;shape=mxgraph.flowchart.display;whiteSpace=wrap;sketch=1;hachureGap=4;jiggle=2;curveFitting=1;fontFamily=Architects Daughter;fontSource=https%3A%2F%2Ffonts.googleapis.com%2Fcss%3Ffamily%3DArchitects%2BDaughter;fontSize=20;" parent="1" vertex="1">
          <mxGeometry x="542.5" y="1150" width="127.5" height="90" as="geometry" />
        </mxCell>
        <mxCell id="K529BgqyPdFPI6PLgaCU-65" value="&quot;Saldo&lt;br&gt;insuficiente&quot;" style="strokeWidth=2;html=1;shape=mxgraph.flowchart.display;whiteSpace=wrap;sketch=1;hachureGap=4;jiggle=2;curveFitting=1;fontFamily=Architects Daughter;fontSource=https%3A%2F%2Ffonts.googleapis.com%2Fcss%3Ffamily%3DArchitects%2BDaughter;fontSize=20;" parent="1" vertex="1">
          <mxGeometry x="305" y="1150" width="130" height="90" as="geometry" />
        </mxCell>
        <mxCell id="K529BgqyPdFPI6PLgaCU-66" value="F" style="text;html=1;strokeColor=none;fillColor=none;align=center;verticalAlign=middle;whiteSpace=wrap;rounded=0;fontSize=20;fontFamily=Architects Daughter;" parent="1" vertex="1">
          <mxGeometry x="305" y="1110" width="60" height="30" as="geometry" />
        </mxCell>
        <mxCell id="K529BgqyPdFPI6PLgaCU-67" value="Saldo" style="strokeWidth=2;html=1;shape=mxgraph.flowchart.display;whiteSpace=wrap;sketch=1;hachureGap=4;jiggle=2;curveFitting=1;fontFamily=Architects Daughter;fontSource=https%3A%2F%2Ffonts.googleapis.com%2Fcss%3Ffamily%3DArchitects%2BDaughter;fontSize=20;" parent="1" vertex="1">
          <mxGeometry x="87.5" y="1340" width="135" height="80" as="geometry" />
        </mxCell>
        <mxCell id="K529BgqyPdFPI6PLgaCU-68" value="" style="endArrow=open;endFill=1;endSize=12;html=1;rounded=0;sketch=1;hachureGap=4;jiggle=2;curveFitting=1;fontFamily=Architects Daughter;fontSource=https%3A%2F%2Ffonts.googleapis.com%2Fcss%3Ffamily%3DArchitects%2BDaughter;fontSize=16;exitX=0.5;exitY=1;exitDx=0;exitDy=0;exitPerimeter=0;entryX=0.5;entryY=0;entryDx=0;entryDy=0;entryPerimeter=0;" parent="1" source="K529BgqyPdFPI6PLgaCU-49" target="K529BgqyPdFPI6PLgaCU-67" edge="1">
          <mxGeometry width="160" relative="1" as="geometry">
            <mxPoint x="120" y="1210" as="sourcePoint" />
            <mxPoint x="160" y="1320" as="targetPoint" />
          </mxGeometry>
        </mxCell>
        <mxCell id="K529BgqyPdFPI6PLgaCU-69" value="F" style="text;html=1;strokeColor=none;fillColor=none;align=center;verticalAlign=middle;whiteSpace=wrap;rounded=0;fontSize=20;fontFamily=Architects Daughter;" parent="1" vertex="1">
          <mxGeometry x="100" y="1200" width="60" height="30" as="geometry" />
        </mxCell>
        <mxCell id="K529BgqyPdFPI6PLgaCU-70" value="" style="endArrow=open;endFill=1;endSize=12;html=1;rounded=0;sketch=1;hachureGap=4;jiggle=2;curveFitting=1;fontFamily=Architects Daughter;fontSource=https%3A%2F%2Ffonts.googleapis.com%2Fcss%3Ffamily%3DArchitects%2BDaughter;fontSize=16;exitX=0.5;exitY=1;exitDx=0;exitDy=0;exitPerimeter=0;" parent="1" source="K529BgqyPdFPI6PLgaCU-64" edge="1">
          <mxGeometry width="160" relative="1" as="geometry">
            <mxPoint x="542.5" y="1310" as="sourcePoint" />
            <mxPoint x="190" y="1320" as="targetPoint" />
            <Array as="points">
              <mxPoint x="610" y="1320" />
            </Array>
          </mxGeometry>
        </mxCell>
        <mxCell id="K529BgqyPdFPI6PLgaCU-71" value="" style="endArrow=open;endFill=1;endSize=12;html=1;rounded=0;sketch=1;hachureGap=4;jiggle=2;curveFitting=1;fontFamily=Architects Daughter;fontSource=https%3A%2F%2Ffonts.googleapis.com%2Fcss%3Ffamily%3DArchitects%2BDaughter;fontSize=16;exitX=0.5;exitY=1;exitDx=0;exitDy=0;exitPerimeter=0;" parent="1" source="K529BgqyPdFPI6PLgaCU-65" edge="1">
          <mxGeometry width="160" relative="1" as="geometry">
            <mxPoint x="280" y="1320" as="sourcePoint" />
            <mxPoint x="180" y="1290" as="targetPoint" />
            <Array as="points">
              <mxPoint x="370" y="1290" />
            </Array>
          </mxGeometry>
        </mxCell>
        <mxCell id="K529BgqyPdFPI6PLgaCU-72" value="" style="endArrow=open;endFill=1;endSize=12;html=1;rounded=0;sketch=1;hachureGap=4;jiggle=2;curveFitting=1;fontFamily=Architects Daughter;fontSource=https%3A%2F%2Ffonts.googleapis.com%2Fcss%3Ffamily%3DArchitects%2BDaughter;fontSize=16;exitX=0.5;exitY=1;exitDx=0;exitDy=0;exitPerimeter=0;" parent="1" source="K529BgqyPdFPI6PLgaCU-67" target="K529BgqyPdFPI6PLgaCU-73" edge="1">
          <mxGeometry width="160" relative="1" as="geometry">
            <mxPoint x="380" y="1680" as="sourcePoint" />
            <mxPoint x="240" y="1460" as="targetPoint" />
          </mxGeometry>
        </mxCell>
        <mxCell id="K529BgqyPdFPI6PLgaCU-73" value="Encerrar ? (s/n)" style="html=1;strokeWidth=2;shape=manualInput;whiteSpace=wrap;rounded=1;size=26;arcSize=11;sketch=1;hachureGap=4;jiggle=2;curveFitting=1;fontFamily=Architects Daughter;fontSource=https%3A%2F%2Ffonts.googleapis.com%2Fcss%3Ffamily%3DArchitects%2BDaughter;fontSize=20;" parent="1" vertex="1">
          <mxGeometry x="80" y="1480" width="140" height="80" as="geometry" />
        </mxCell>
        <mxCell id="K529BgqyPdFPI6PLgaCU-77" value="" style="endArrow=open;endFill=1;endSize=12;html=1;rounded=0;sketch=1;hachureGap=4;jiggle=2;curveFitting=1;fontFamily=Architects Daughter;fontSource=https%3A%2F%2Ffonts.googleapis.com%2Fcss%3Ffamily%3DArchitects%2BDaughter;fontSize=16;entryX=0;entryY=0.5;entryDx=0;entryDy=0;entryPerimeter=0;exitX=0;exitY=0.5;exitDx=0;exitDy=0;" parent="1" source="K529BgqyPdFPI6PLgaCU-73" target="K529BgqyPdFPI6PLgaCU-28" edge="1">
          <mxGeometry width="160" relative="1" as="geometry">
            <mxPoint x="-240" y="620" as="sourcePoint" />
            <mxPoint x="-270" y="870" as="targetPoint" />
            <Array as="points">
              <mxPoint x="-20" y="1530" />
              <mxPoint x="-10" y="410" />
            </Array>
          </mxGeometry>
        </mxCell>
        <mxCell id="K529BgqyPdFPI6PLgaCU-78" value="&quot;Sistema&lt;br&gt;encerrado" style="strokeWidth=2;html=1;shape=mxgraph.flowchart.display;whiteSpace=wrap;sketch=1;hachureGap=4;jiggle=2;curveFitting=1;fontFamily=Architects Daughter;fontSource=https%3A%2F%2Ffonts.googleapis.com%2Fcss%3Ffamily%3DArchitects%2BDaughter;fontSize=20;" parent="1" vertex="1">
          <mxGeometry x="80" y="1630" width="142.5" height="90" as="geometry" />
        </mxCell>
        <mxCell id="K529BgqyPdFPI6PLgaCU-79" value="Fim" style="strokeWidth=2;html=1;shape=mxgraph.flowchart.start_1;whiteSpace=wrap;sketch=1;hachureGap=4;jiggle=2;curveFitting=1;fontFamily=Architects Daughter;fontSource=https%3A%2F%2Ffonts.googleapis.com%2Fcss%3Ffamily%3DArchitects%2BDaughter;fontSize=20;" parent="1" vertex="1">
          <mxGeometry x="95" y="1800" width="100" height="60" as="geometry" />
        </mxCell>
        <mxCell id="K529BgqyPdFPI6PLgaCU-80" value="" style="endArrow=open;endFill=1;endSize=12;html=1;rounded=0;sketch=1;hachureGap=4;jiggle=2;curveFitting=1;fontFamily=Architects Daughter;fontSource=https%3A%2F%2Ffonts.googleapis.com%2Fcss%3Ffamily%3DArchitects%2BDaughter;fontSize=16;exitX=0.5;exitY=1;exitDx=0;exitDy=0;exitPerimeter=0;entryX=0.5;entryY=0;entryDx=0;entryDy=0;entryPerimeter=0;" parent="1" source="K529BgqyPdFPI6PLgaCU-78" target="K529BgqyPdFPI6PLgaCU-79" edge="1">
          <mxGeometry width="160" relative="1" as="geometry">
            <mxPoint x="320" y="1790" as="sourcePoint" />
            <mxPoint x="480" y="1790" as="targetPoint" />
          </mxGeometry>
        </mxCell>
        <mxCell id="K529BgqyPdFPI6PLgaCU-81" value="" style="endArrow=open;endFill=1;endSize=12;html=1;rounded=0;sketch=1;hachureGap=4;jiggle=2;curveFitting=1;fontFamily=Architects Daughter;fontSource=https%3A%2F%2Ffonts.googleapis.com%2Fcss%3Ffamily%3DArchitects%2BDaughter;fontSize=16;entryX=0.92;entryY=0.86;entryDx=0;entryDy=0;entryPerimeter=0;exitX=1;exitY=0.5;exitDx=0;exitDy=0;exitPerimeter=0;" parent="1" source="K529BgqyPdFPI6PLgaCU-28" target="K529BgqyPdFPI6PLgaCU-78" edge="1">
          <mxGeometry width="160" relative="1" as="geometry">
            <mxPoint x="310" y="1120" as="sourcePoint" />
            <mxPoint x="580" y="1770" as="targetPoint" />
            <Array as="points">
              <mxPoint x="750" y="440" />
              <mxPoint x="780" y="1707" />
            </Array>
          </mxGeometry>
        </mxCell>
        <mxCell id="K529BgqyPdFPI6PLgaCU-82" value="F" style="text;html=1;strokeColor=none;fillColor=none;align=center;verticalAlign=middle;whiteSpace=wrap;rounded=0;fontSize=20;fontFamily=Architects Daughter;" parent="1" vertex="1">
          <mxGeometry x="460" y="390" width="60" height="30" as="geometry" />
        </mxCell>
        <mxCell id="KEXaXJ9C1GrtUqAtvvnB-5" value="Encerrar=&quot;n&quot;" style="rounded=1;whiteSpace=wrap;html=1;sketch=1;hachureGap=4;jiggle=2;curveFitting=1;fontFamily=Architects Daughter;fontSource=https%3A%2F%2Ffonts.googleapis.com%2Fcss%3Ffamily%3DArchitects%2BDaughter;fontSize=20;" vertex="1" parent="1">
          <mxGeometry x="140" y="2170" width="120" height="60" as="geometry" />
        </mxCell>
        <mxCell id="KEXaXJ9C1GrtUqAtvvnB-6" value="" style="endArrow=open;endFill=1;endSize=12;html=1;rounded=0;sketch=1;hachureGap=4;jiggle=2;curveFitting=1;fontFamily=Architects Daughter;fontSource=https%3A%2F%2Ffonts.googleapis.com%2Fcss%3Ffamily%3DArchitects%2BDaughter;fontSize=16;entryX=1;entryY=0.75;entryDx=0;entryDy=0;exitX=0.612;exitY=1.049;exitDx=0;exitDy=0;exitPerimeter=0;" edge="1" parent="1" target="KEXaXJ9C1GrtUqAtvvnB-5">
          <mxGeometry width="160" relative="1" as="geometry">
            <mxPoint x="421.1999999999998" y="2113.92" as="sourcePoint" />
            <mxPoint x="300" y="2180" as="targetPoint" />
            <Array as="points">
              <mxPoint x="420" y="2215" />
            </Array>
          </mxGeometry>
        </mxCell>
        <mxCell id="KEXaXJ9C1GrtUqAtvvnB-9" value="" style="endArrow=open;endFill=1;endSize=12;html=1;rounded=0;sketch=1;hachureGap=4;jiggle=2;curveFitting=1;fontFamily=Architects Daughter;fontSource=https%3A%2F%2Ffonts.googleapis.com%2Fcss%3Ffamily%3DArchitects%2BDaughter;fontSize=16;exitX=0.5;exitY=1;exitDx=0;exitDy=0;entryX=0.5;entryY=0;entryDx=0;entryDy=0;entryPerimeter=0;" edge="1" parent="1" source="KEXaXJ9C1GrtUqAtvvnB-5" target="KEXaXJ9C1GrtUqAtvvnB-11">
          <mxGeometry width="160" relative="1" as="geometry">
            <mxPoint x="199.5" y="2220" as="sourcePoint" />
            <mxPoint x="230" y="2250" as="targetPoint" />
          </mxGeometry>
        </mxCell>
        <mxCell id="KEXaXJ9C1GrtUqAtvvnB-10" style="edgeStyle=orthogonalEdgeStyle;rounded=0;sketch=1;hachureGap=4;jiggle=2;curveFitting=1;orthogonalLoop=1;jettySize=auto;html=1;fontFamily=Architects Daughter;fontSource=https%3A%2F%2Ffonts.googleapis.com%2Fcss%3Ffamily%3DArchitects%2BDaughter;fontSize=16;" edge="1" parent="1">
          <mxGeometry relative="1" as="geometry">
            <mxPoint x="280" y="2335" as="targetPoint" />
            <mxPoint x="280" y="2335" as="sourcePoint" />
          </mxGeometry>
        </mxCell>
        <mxCell id="KEXaXJ9C1GrtUqAtvvnB-11" value="Encerrar=&quot;n&quot;" style="strokeWidth=2;html=1;shape=mxgraph.flowchart.decision;whiteSpace=wrap;sketch=1;hachureGap=4;jiggle=2;curveFitting=1;fontFamily=Architects Daughter;fontSource=https%3A%2F%2Ffonts.googleapis.com%2Fcss%3Ffamily%3DArchitects%2BDaughter;fontSize=20;" vertex="1" parent="1">
          <mxGeometry x="135" y="2260" width="130" height="130" as="geometry" />
        </mxCell>
        <mxCell id="KEXaXJ9C1GrtUqAtvvnB-12" value="Tipo de entrada" style="shape=manualInput;whiteSpace=wrap;html=1;sketch=1;hachureGap=4;jiggle=2;curveFitting=1;fontFamily=Architects Daughter;fontSource=https%3A%2F%2Ffonts.googleapis.com%2Fcss%3Ffamily%3DArchitects%2BDaughter;fontSize=20;" vertex="1" parent="1">
          <mxGeometry x="140" y="2440" width="130" height="100" as="geometry" />
        </mxCell>
        <mxCell id="KEXaXJ9C1GrtUqAtvvnB-13" value="" style="endArrow=open;endFill=1;endSize=12;html=1;rounded=0;sketch=1;hachureGap=4;jiggle=2;curveFitting=1;fontFamily=Architects Daughter;fontSource=https%3A%2F%2Ffonts.googleapis.com%2Fcss%3Ffamily%3DArchitects%2BDaughter;fontSize=16;exitX=0.5;exitY=1;exitDx=0;exitDy=0;exitPerimeter=0;entryX=0.5;entryY=0;entryDx=0;entryDy=0;" edge="1" parent="1" source="KEXaXJ9C1GrtUqAtvvnB-11" target="KEXaXJ9C1GrtUqAtvvnB-12">
          <mxGeometry width="160" relative="1" as="geometry">
            <mxPoint x="204.5" y="2405" as="sourcePoint" />
            <mxPoint x="260" y="2410" as="targetPoint" />
            <Array as="points" />
          </mxGeometry>
        </mxCell>
        <mxCell id="KEXaXJ9C1GrtUqAtvvnB-14" value="V" style="text;html=1;strokeColor=none;fillColor=none;align=center;verticalAlign=middle;whiteSpace=wrap;rounded=0;fontSize=20;fontFamily=Architects Daughter;" vertex="1" parent="1">
          <mxGeometry x="150" y="2400" width="60" height="30" as="geometry" />
        </mxCell>
        <mxCell id="KEXaXJ9C1GrtUqAtvvnB-15" value="Quantidade" style="shape=manualInput;whiteSpace=wrap;html=1;sketch=1;hachureGap=4;jiggle=2;curveFitting=1;fontFamily=Architects Daughter;fontSource=https%3A%2F%2Ffonts.googleapis.com%2Fcss%3Ffamily%3DArchitects%2BDaughter;fontSize=20;" vertex="1" parent="1">
          <mxGeometry x="140" y="2570" width="140" height="80" as="geometry" />
        </mxCell>
        <mxCell id="KEXaXJ9C1GrtUqAtvvnB-16" value="" style="endArrow=open;endFill=1;endSize=12;html=1;rounded=0;sketch=1;hachureGap=4;jiggle=2;curveFitting=1;fontFamily=Architects Daughter;fontSource=https%3A%2F%2Ffonts.googleapis.com%2Fcss%3Ffamily%3DArchitects%2BDaughter;fontSize=16;entryX=0.483;entryY=0.161;entryDx=0;entryDy=0;entryPerimeter=0;exitX=0.5;exitY=1;exitDx=0;exitDy=0;" edge="1" parent="1" source="KEXaXJ9C1GrtUqAtvvnB-12" target="KEXaXJ9C1GrtUqAtvvnB-15">
          <mxGeometry width="160" relative="1" as="geometry">
            <mxPoint x="204.5" y="2530" as="sourcePoint" />
            <mxPoint x="204.5" y="2600" as="targetPoint" />
          </mxGeometry>
        </mxCell>
        <mxCell id="KEXaXJ9C1GrtUqAtvvnB-17" value="" style="edgeStyle=orthogonalEdgeStyle;rounded=0;sketch=1;hachureGap=4;jiggle=2;curveFitting=1;orthogonalLoop=1;jettySize=auto;html=1;fontFamily=Architects Daughter;fontSource=https%3A%2F%2Ffonts.googleapis.com%2Fcss%3Ffamily%3DArchitects%2BDaughter;fontSize=16;exitX=1;exitY=0.5;exitDx=0;exitDy=0;exitPerimeter=0;entryX=0;entryY=0.5;entryDx=0;entryDy=0;" edge="1" parent="1" source="KEXaXJ9C1GrtUqAtvvnB-18" target="KEXaXJ9C1GrtUqAtvvnB-20">
          <mxGeometry relative="1" as="geometry">
            <mxPoint x="300" y="2790" as="sourcePoint" />
            <mxPoint x="320" y="2780" as="targetPoint" />
          </mxGeometry>
        </mxCell>
        <mxCell id="KEXaXJ9C1GrtUqAtvvnB-18" value="Tipo de entrada=1" style="strokeWidth=2;html=1;shape=mxgraph.flowchart.decision;whiteSpace=wrap;sketch=1;hachureGap=4;jiggle=2;curveFitting=1;fontFamily=Architects Daughter;fontSource=https%3A%2F%2Ffonts.googleapis.com%2Fcss%3Ffamily%3DArchitects%2BDaughter;fontSize=20;" vertex="1" parent="1">
          <mxGeometry x="137.5" y="2690" width="152.5" height="130" as="geometry" />
        </mxCell>
        <mxCell id="KEXaXJ9C1GrtUqAtvvnB-19" value="" style="endArrow=open;endFill=1;endSize=12;html=1;rounded=0;sketch=1;hachureGap=4;jiggle=2;curveFitting=1;fontFamily=Architects Daughter;fontSource=https%3A%2F%2Ffonts.googleapis.com%2Fcss%3Ffamily%3DArchitects%2BDaughter;fontSize=16;exitX=0.5;exitY=1;exitDx=0;exitDy=0;entryX=0.5;entryY=0;entryDx=0;entryDy=0;entryPerimeter=0;" edge="1" parent="1" source="KEXaXJ9C1GrtUqAtvvnB-15" target="KEXaXJ9C1GrtUqAtvvnB-18">
          <mxGeometry width="160" relative="1" as="geometry">
            <mxPoint x="240" y="2680" as="sourcePoint" />
            <mxPoint x="230" y="2680" as="targetPoint" />
          </mxGeometry>
        </mxCell>
        <mxCell id="KEXaXJ9C1GrtUqAtvvnB-20" value="Saldo=saldo+&lt;br&gt;quantidade" style="rounded=1;whiteSpace=wrap;html=1;sketch=1;hachureGap=4;jiggle=2;curveFitting=1;fontFamily=Architects Daughter;fontSource=https%3A%2F%2Ffonts.googleapis.com%2Fcss%3Ffamily%3DArchitects%2BDaughter;fontSize=20;" vertex="1" parent="1">
          <mxGeometry x="350" y="2715" width="160" height="80" as="geometry" />
        </mxCell>
        <mxCell id="KEXaXJ9C1GrtUqAtvvnB-21" value="&quot;Entrada:&quot;+&lt;br&gt;quantidade" style="strokeWidth=2;html=1;shape=mxgraph.flowchart.display;whiteSpace=wrap;sketch=1;hachureGap=4;jiggle=2;curveFitting=1;fontFamily=Architects Daughter;fontSource=https%3A%2F%2Ffonts.googleapis.com%2Fcss%3Ffamily%3DArchitects%2BDaughter;fontSize=20;" vertex="1" parent="1">
          <mxGeometry x="570" y="2720" width="130" height="80" as="geometry" />
        </mxCell>
        <mxCell id="KEXaXJ9C1GrtUqAtvvnB-22" value="" style="endArrow=open;endFill=1;endSize=12;html=1;rounded=0;sketch=1;hachureGap=4;jiggle=2;curveFitting=1;fontFamily=Architects Daughter;fontSource=https%3A%2F%2Ffonts.googleapis.com%2Fcss%3Ffamily%3DArchitects%2BDaughter;fontSize=16;entryX=0;entryY=0.5;entryDx=0;entryDy=0;entryPerimeter=0;exitX=1;exitY=0.5;exitDx=0;exitDy=0;" edge="1" parent="1" source="KEXaXJ9C1GrtUqAtvvnB-20" target="KEXaXJ9C1GrtUqAtvvnB-21">
          <mxGeometry width="160" relative="1" as="geometry">
            <mxPoint x="394" y="2780" as="sourcePoint" />
            <mxPoint x="554" y="2780" as="targetPoint" />
          </mxGeometry>
        </mxCell>
        <mxCell id="KEXaXJ9C1GrtUqAtvvnB-23" value="" style="endArrow=open;endFill=1;endSize=12;html=1;rounded=0;sketch=1;hachureGap=4;jiggle=2;curveFitting=1;fontFamily=Architects Daughter;fontSource=https%3A%2F%2Ffonts.googleapis.com%2Fcss%3Ffamily%3DArchitects%2BDaughter;fontSize=16;exitX=0.5;exitY=1;exitDx=0;exitDy=0;exitPerimeter=0;entryX=0.5;entryY=0;entryDx=0;entryDy=0;entryPerimeter=0;" edge="1" parent="1" source="KEXaXJ9C1GrtUqAtvvnB-18" target="KEXaXJ9C1GrtUqAtvvnB-24">
          <mxGeometry width="160" relative="1" as="geometry">
            <mxPoint x="213.25" y="2850" as="sourcePoint" />
            <mxPoint x="213" y="2860" as="targetPoint" />
          </mxGeometry>
        </mxCell>
        <mxCell id="KEXaXJ9C1GrtUqAtvvnB-24" value="Tipo entrada=2" style="strokeWidth=2;html=1;shape=mxgraph.flowchart.decision;whiteSpace=wrap;sketch=1;hachureGap=4;jiggle=2;curveFitting=1;fontFamily=Architects Daughter;fontSource=https%3A%2F%2Ffonts.googleapis.com%2Fcss%3Ffamily%3DArchitects%2BDaughter;fontSize=20;" vertex="1" parent="1">
          <mxGeometry x="140" y="2870" width="150" height="140" as="geometry" />
        </mxCell>
        <mxCell id="KEXaXJ9C1GrtUqAtvvnB-25" value="F" style="text;html=1;strokeColor=none;fillColor=none;align=center;verticalAlign=middle;whiteSpace=wrap;rounded=0;fontSize=20;fontFamily=Architects Daughter;" vertex="1" parent="1">
          <mxGeometry x="160" y="2840" width="60" height="30" as="geometry" />
        </mxCell>
        <mxCell id="KEXaXJ9C1GrtUqAtvvnB-26" value="V" style="text;html=1;strokeColor=none;fillColor=none;align=center;verticalAlign=middle;whiteSpace=wrap;rounded=0;fontSize=20;fontFamily=Architects Daughter;" vertex="1" parent="1">
          <mxGeometry x="280" y="2710" width="60" height="30" as="geometry" />
        </mxCell>
        <mxCell id="KEXaXJ9C1GrtUqAtvvnB-27" value="" style="endArrow=open;endFill=1;endSize=12;html=1;rounded=0;sketch=1;hachureGap=4;jiggle=2;curveFitting=1;fontFamily=Architects Daughter;fontSource=https%3A%2F%2Ffonts.googleapis.com%2Fcss%3Ffamily%3DArchitects%2BDaughter;fontSize=16;exitX=0.5;exitY=1;exitDx=0;exitDy=0;exitPerimeter=0;" edge="1" parent="1" source="KEXaXJ9C1GrtUqAtvvnB-21">
          <mxGeometry width="160" relative="1" as="geometry">
            <mxPoint x="750" y="2840" as="sourcePoint" />
            <mxPoint x="240" y="2840" as="targetPoint" />
            <Array as="points">
              <mxPoint x="640" y="2860" />
            </Array>
          </mxGeometry>
        </mxCell>
        <mxCell id="KEXaXJ9C1GrtUqAtvvnB-28" value="" style="endArrow=open;endFill=1;endSize=12;html=1;rounded=0;sketch=1;hachureGap=4;jiggle=2;curveFitting=1;fontFamily=Architects Daughter;fontSource=https%3A%2F%2Ffonts.googleapis.com%2Fcss%3Ffamily%3DArchitects%2BDaughter;fontSize=16;exitX=1;exitY=0.5;exitDx=0;exitDy=0;exitPerimeter=0;entryX=0;entryY=0.5;entryDx=0;entryDy=0;entryPerimeter=0;" edge="1" parent="1" source="KEXaXJ9C1GrtUqAtvvnB-24" target="KEXaXJ9C1GrtUqAtvvnB-29">
          <mxGeometry width="160" relative="1" as="geometry">
            <mxPoint x="440" y="3030" as="sourcePoint" />
            <mxPoint x="340" y="2960" as="targetPoint" />
          </mxGeometry>
        </mxCell>
        <mxCell id="KEXaXJ9C1GrtUqAtvvnB-29" value="Saldo&amp;gt;=&lt;br&gt;quantidade" style="strokeWidth=2;html=1;shape=mxgraph.flowchart.decision;whiteSpace=wrap;sketch=1;hachureGap=4;jiggle=2;curveFitting=1;fontFamily=Architects Daughter;fontSource=https%3A%2F%2Ffonts.googleapis.com%2Fcss%3Ffamily%3DArchitects%2BDaughter;fontSize=20;" vertex="1" parent="1">
          <mxGeometry x="360" y="2870" width="140" height="140" as="geometry" />
        </mxCell>
        <mxCell id="KEXaXJ9C1GrtUqAtvvnB-30" value="Saldo=saldo-&lt;br&gt;quantidade" style="rounded=1;whiteSpace=wrap;html=1;sketch=1;hachureGap=4;jiggle=2;curveFitting=1;fontFamily=Architects Daughter;fontSource=https%3A%2F%2Ffonts.googleapis.com%2Fcss%3Ffamily%3DArchitects%2BDaughter;fontSize=20;" vertex="1" parent="1">
          <mxGeometry x="580" y="2910" width="150" height="80" as="geometry" />
        </mxCell>
        <mxCell id="KEXaXJ9C1GrtUqAtvvnB-31" value="" style="endArrow=open;endFill=1;endSize=12;html=1;rounded=0;sketch=1;hachureGap=4;jiggle=2;curveFitting=1;fontFamily=Architects Daughter;fontSource=https%3A%2F%2Ffonts.googleapis.com%2Fcss%3Ffamily%3DArchitects%2BDaughter;fontSize=16;exitX=1;exitY=0.5;exitDx=0;exitDy=0;exitPerimeter=0;entryX=0;entryY=0.5;entryDx=0;entryDy=0;" edge="1" parent="1" source="KEXaXJ9C1GrtUqAtvvnB-29" target="KEXaXJ9C1GrtUqAtvvnB-30">
          <mxGeometry width="160" relative="1" as="geometry">
            <mxPoint x="440" y="3010" as="sourcePoint" />
            <mxPoint x="600" y="3010" as="targetPoint" />
          </mxGeometry>
        </mxCell>
        <mxCell id="KEXaXJ9C1GrtUqAtvvnB-32" value="V" style="text;html=1;strokeColor=none;fillColor=none;align=center;verticalAlign=middle;whiteSpace=wrap;rounded=0;fontSize=20;fontFamily=Architects Daughter;" vertex="1" parent="1">
          <mxGeometry x="290" y="2900" width="60" height="30" as="geometry" />
        </mxCell>
        <mxCell id="KEXaXJ9C1GrtUqAtvvnB-33" value="V" style="text;html=1;strokeColor=none;fillColor=none;align=center;verticalAlign=middle;whiteSpace=wrap;rounded=0;fontSize=20;fontFamily=Architects Daughter;" vertex="1" parent="1">
          <mxGeometry x="500" y="2900" width="60" height="30" as="geometry" />
        </mxCell>
        <mxCell id="KEXaXJ9C1GrtUqAtvvnB-34" value="" style="endArrow=open;endFill=1;endSize=12;html=1;rounded=0;sketch=1;hachureGap=4;jiggle=2;curveFitting=1;fontFamily=Architects Daughter;fontSource=https%3A%2F%2Ffonts.googleapis.com%2Fcss%3Ffamily%3DArchitects%2BDaughter;fontSize=16;exitX=0.5;exitY=1;exitDx=0;exitDy=0;exitPerimeter=0;entryX=0.5;entryY=0;entryDx=0;entryDy=0;entryPerimeter=0;" edge="1" parent="1" source="KEXaXJ9C1GrtUqAtvvnB-29" target="KEXaXJ9C1GrtUqAtvvnB-37">
          <mxGeometry width="160" relative="1" as="geometry">
            <mxPoint x="400" y="3060" as="sourcePoint" />
            <mxPoint x="430" y="3030" as="targetPoint" />
          </mxGeometry>
        </mxCell>
        <mxCell id="KEXaXJ9C1GrtUqAtvvnB-35" value="" style="endArrow=open;endFill=1;endSize=12;html=1;rounded=0;sketch=1;hachureGap=4;jiggle=2;curveFitting=1;fontFamily=Architects Daughter;fontSource=https%3A%2F%2Ffonts.googleapis.com%2Fcss%3Ffamily%3DArchitects%2BDaughter;fontSize=16;exitX=0.5;exitY=1;exitDx=0;exitDy=0;" edge="1" parent="1" source="KEXaXJ9C1GrtUqAtvvnB-30" target="KEXaXJ9C1GrtUqAtvvnB-36">
          <mxGeometry width="160" relative="1" as="geometry">
            <mxPoint x="620" y="3040" as="sourcePoint" />
            <mxPoint x="660" y="3010" as="targetPoint" />
          </mxGeometry>
        </mxCell>
        <mxCell id="KEXaXJ9C1GrtUqAtvvnB-36" value="&quot;SaÃ­da:&quot;+&lt;br&gt;quantidade" style="strokeWidth=2;html=1;shape=mxgraph.flowchart.display;whiteSpace=wrap;sketch=1;hachureGap=4;jiggle=2;curveFitting=1;fontFamily=Architects Daughter;fontSource=https%3A%2F%2Ffonts.googleapis.com%2Fcss%3Ffamily%3DArchitects%2BDaughter;fontSize=20;" vertex="1" parent="1">
          <mxGeometry x="602.5" y="3050" width="127.5" height="90" as="geometry" />
        </mxCell>
        <mxCell id="KEXaXJ9C1GrtUqAtvvnB-37" value="&quot;Saldo&lt;br&gt;insuficiente&quot;" style="strokeWidth=2;html=1;shape=mxgraph.flowchart.display;whiteSpace=wrap;sketch=1;hachureGap=4;jiggle=2;curveFitting=1;fontFamily=Architects Daughter;fontSource=https%3A%2F%2Ffonts.googleapis.com%2Fcss%3Ffamily%3DArchitects%2BDaughter;fontSize=20;" vertex="1" parent="1">
          <mxGeometry x="365" y="3050" width="130" height="90" as="geometry" />
        </mxCell>
        <mxCell id="KEXaXJ9C1GrtUqAtvvnB-38" value="F" style="text;html=1;strokeColor=none;fillColor=none;align=center;verticalAlign=middle;whiteSpace=wrap;rounded=0;fontSize=20;fontFamily=Architects Daughter;" vertex="1" parent="1">
          <mxGeometry x="365" y="3010" width="60" height="30" as="geometry" />
        </mxCell>
        <mxCell id="KEXaXJ9C1GrtUqAtvvnB-39" value="Saldo" style="strokeWidth=2;html=1;shape=mxgraph.flowchart.display;whiteSpace=wrap;sketch=1;hachureGap=4;jiggle=2;curveFitting=1;fontFamily=Architects Daughter;fontSource=https%3A%2F%2Ffonts.googleapis.com%2Fcss%3Ffamily%3DArchitects%2BDaughter;fontSize=20;" vertex="1" parent="1">
          <mxGeometry x="147.5" y="3240" width="135" height="80" as="geometry" />
        </mxCell>
        <mxCell id="KEXaXJ9C1GrtUqAtvvnB-40" value="" style="endArrow=open;endFill=1;endSize=12;html=1;rounded=0;sketch=1;hachureGap=4;jiggle=2;curveFitting=1;fontFamily=Architects Daughter;fontSource=https%3A%2F%2Ffonts.googleapis.com%2Fcss%3Ffamily%3DArchitects%2BDaughter;fontSize=16;exitX=0.5;exitY=1;exitDx=0;exitDy=0;exitPerimeter=0;entryX=0.5;entryY=0;entryDx=0;entryDy=0;entryPerimeter=0;" edge="1" parent="1" source="KEXaXJ9C1GrtUqAtvvnB-24" target="KEXaXJ9C1GrtUqAtvvnB-39">
          <mxGeometry width="160" relative="1" as="geometry">
            <mxPoint x="180" y="3110" as="sourcePoint" />
            <mxPoint x="220" y="3220" as="targetPoint" />
          </mxGeometry>
        </mxCell>
        <mxCell id="KEXaXJ9C1GrtUqAtvvnB-41" value="F" style="text;html=1;strokeColor=none;fillColor=none;align=center;verticalAlign=middle;whiteSpace=wrap;rounded=0;fontSize=20;fontFamily=Architects Daughter;" vertex="1" parent="1">
          <mxGeometry x="160" y="3100" width="60" height="30" as="geometry" />
        </mxCell>
        <mxCell id="KEXaXJ9C1GrtUqAtvvnB-42" value="" style="endArrow=open;endFill=1;endSize=12;html=1;rounded=0;sketch=1;hachureGap=4;jiggle=2;curveFitting=1;fontFamily=Architects Daughter;fontSource=https%3A%2F%2Ffonts.googleapis.com%2Fcss%3Ffamily%3DArchitects%2BDaughter;fontSize=16;exitX=0.5;exitY=1;exitDx=0;exitDy=0;exitPerimeter=0;" edge="1" parent="1" source="KEXaXJ9C1GrtUqAtvvnB-36">
          <mxGeometry width="160" relative="1" as="geometry">
            <mxPoint x="602.5" y="3210" as="sourcePoint" />
            <mxPoint x="250" y="3220" as="targetPoint" />
            <Array as="points">
              <mxPoint x="670" y="3220" />
            </Array>
          </mxGeometry>
        </mxCell>
        <mxCell id="KEXaXJ9C1GrtUqAtvvnB-43" value="" style="endArrow=open;endFill=1;endSize=12;html=1;rounded=0;sketch=1;hachureGap=4;jiggle=2;curveFitting=1;fontFamily=Architects Daughter;fontSource=https%3A%2F%2Ffonts.googleapis.com%2Fcss%3Ffamily%3DArchitects%2BDaughter;fontSize=16;exitX=0.5;exitY=1;exitDx=0;exitDy=0;exitPerimeter=0;" edge="1" parent="1" source="KEXaXJ9C1GrtUqAtvvnB-37">
          <mxGeometry width="160" relative="1" as="geometry">
            <mxPoint x="340" y="3220" as="sourcePoint" />
            <mxPoint x="240" y="3190" as="targetPoint" />
            <Array as="points">
              <mxPoint x="430" y="3190" />
            </Array>
          </mxGeometry>
        </mxCell>
        <mxCell id="KEXaXJ9C1GrtUqAtvvnB-44" value="" style="endArrow=open;endFill=1;endSize=12;html=1;rounded=0;sketch=1;hachureGap=4;jiggle=2;curveFitting=1;fontFamily=Architects Daughter;fontSource=https%3A%2F%2Ffonts.googleapis.com%2Fcss%3Ffamily%3DArchitects%2BDaughter;fontSize=16;exitX=0.5;exitY=1;exitDx=0;exitDy=0;exitPerimeter=0;" edge="1" parent="1" source="KEXaXJ9C1GrtUqAtvvnB-39" target="KEXaXJ9C1GrtUqAtvvnB-45">
          <mxGeometry width="160" relative="1" as="geometry">
            <mxPoint x="440" y="3580" as="sourcePoint" />
            <mxPoint x="300" y="3360" as="targetPoint" />
          </mxGeometry>
        </mxCell>
        <mxCell id="KEXaXJ9C1GrtUqAtvvnB-45" value="Encerrar ? (s/n)" style="html=1;strokeWidth=2;shape=manualInput;whiteSpace=wrap;rounded=1;size=26;arcSize=11;sketch=1;hachureGap=4;jiggle=2;curveFitting=1;fontFamily=Architects Daughter;fontSource=https%3A%2F%2Ffonts.googleapis.com%2Fcss%3Ffamily%3DArchitects%2BDaughter;fontSize=20;" vertex="1" parent="1">
          <mxGeometry x="140" y="3380" width="140" height="80" as="geometry" />
        </mxCell>
        <mxCell id="KEXaXJ9C1GrtUqAtvvnB-46" value="" style="endArrow=open;endFill=1;endSize=12;html=1;rounded=0;sketch=1;hachureGap=4;jiggle=2;curveFitting=1;fontFamily=Architects Daughter;fontSource=https%3A%2F%2Ffonts.googleapis.com%2Fcss%3Ffamily%3DArchitects%2BDaughter;fontSize=16;entryX=0;entryY=0.5;entryDx=0;entryDy=0;entryPerimeter=0;exitX=0;exitY=0.5;exitDx=0;exitDy=0;" edge="1" parent="1" source="KEXaXJ9C1GrtUqAtvvnB-45" target="KEXaXJ9C1GrtUqAtvvnB-11">
          <mxGeometry width="160" relative="1" as="geometry">
            <mxPoint x="-180" y="2520" as="sourcePoint" />
            <mxPoint x="-210" y="2770" as="targetPoint" />
            <Array as="points">
              <mxPoint x="40" y="3430" />
              <mxPoint x="50" y="2310" />
            </Array>
          </mxGeometry>
        </mxCell>
        <mxCell id="KEXaXJ9C1GrtUqAtvvnB-47" value="&quot;Sistema&lt;br&gt;encerrado" style="strokeWidth=2;html=1;shape=mxgraph.flowchart.display;whiteSpace=wrap;sketch=1;hachureGap=4;jiggle=2;curveFitting=1;fontFamily=Architects Daughter;fontSource=https%3A%2F%2Ffonts.googleapis.com%2Fcss%3Ffamily%3DArchitects%2BDaughter;fontSize=20;" vertex="1" parent="1">
          <mxGeometry x="140" y="3530" width="142.5" height="90" as="geometry" />
        </mxCell>
        <mxCell id="KEXaXJ9C1GrtUqAtvvnB-48" value="Fim" style="strokeWidth=2;html=1;shape=mxgraph.flowchart.start_1;whiteSpace=wrap;sketch=1;hachureGap=4;jiggle=2;curveFitting=1;fontFamily=Architects Daughter;fontSource=https%3A%2F%2Ffonts.googleapis.com%2Fcss%3Ffamily%3DArchitects%2BDaughter;fontSize=20;" vertex="1" parent="1">
          <mxGeometry x="155" y="3700" width="100" height="60" as="geometry" />
        </mxCell>
        <mxCell id="KEXaXJ9C1GrtUqAtvvnB-49" value="" style="endArrow=open;endFill=1;endSize=12;html=1;rounded=0;sketch=1;hachureGap=4;jiggle=2;curveFitting=1;fontFamily=Architects Daughter;fontSource=https%3A%2F%2Ffonts.googleapis.com%2Fcss%3Ffamily%3DArchitects%2BDaughter;fontSize=16;exitX=0.5;exitY=1;exitDx=0;exitDy=0;exitPerimeter=0;entryX=0.5;entryY=0;entryDx=0;entryDy=0;entryPerimeter=0;" edge="1" parent="1" source="KEXaXJ9C1GrtUqAtvvnB-47" target="KEXaXJ9C1GrtUqAtvvnB-48">
          <mxGeometry width="160" relative="1" as="geometry">
            <mxPoint x="380" y="3690" as="sourcePoint" />
            <mxPoint x="540" y="3690" as="targetPoint" />
          </mxGeometry>
        </mxCell>
        <mxCell id="KEXaXJ9C1GrtUqAtvvnB-51" value="F" style="text;html=1;strokeColor=none;fillColor=none;align=center;verticalAlign=middle;whiteSpace=wrap;rounded=0;fontSize=20;fontFamily=Architects Daughter;" vertex="1" parent="1">
          <mxGeometry x="520" y="2290" width="60" height="30" as="geometry" />
        </mxCell>
      </root>
    </mxGraphModel>
  </diagram>
</mxfile>
